<svg xmlns="http://www.w3.org/2000/svg" xmlns:xlink="http://www.w3.org/1999/xlink" width="48" height="48" viewBox="0 0 48 48">
    <defs>
        <path id="a" d="M0 0h48v48H0z"/>
    </defs>
    <g fill="none" fill-rule="evenodd">
        <g>
            <mask id="b" fill="#fff">
                <use xlink:href="#a"/>
            </mask>
            <path fill="#1A237E" d="M45.276 24.526c-.75 2.2-2.362 3.455-4.602 3.856-1.162.208-2.357.25-3.54.307-1.548.075-3.042.326-4.403 1.11-1.654.952-2.654 2.422-3.266 4.188-.58 1.672-.752 3.409-.768 5.165-.01 1.069-.108 2.122-.492 3.128-.769 2.015-2.3 3.082-4.365 3.463-2.165.4-4.272.05-6.315-.638-5.07-1.706-9.126-4.773-12.05-9.27-2.358-3.624-3.381-7.646-3.389-11.891.043-3.69.66-7.2 2.307-10.477 2.217-4.411 5.654-7.522 10.175-9.453 3.538-1.511 7.236-2.118 11.07-1.854 3.255.223 6.312 1.149 9.17 2.719 2.87 1.575 5.35 3.623 7.371 6.202 1.783 2.276 3.165 4.763 3.607 7.665a12.111 12.111 0 0 1-.51 5.78m2.138-7.942c-.708-2.358-1.895-4.48-3.393-6.418-2.722-3.521-6.098-6.236-10.175-8.052C31.302.981 28.644.286 25.862.084c-.153-.011-.304-.055-.456-.084h-2.625c-1.036.12-2.08.194-3.106.367C14.095 1.31 9.27 3.683 5.502 7.99c-2.7 3.084-4.293 6.703-5.02 10.713-.194 1.072-.27 2.165-.403 3.248-.015.123-.052.242-.079.363v3.28c.113.847.203 1.698.344 2.54.96 5.732 3.717 10.446 8.131 14.192 2.996 2.543 6.392 4.342 10.23 5.25.845.2 1.717.286 2.576.425h1.875c.15-.032.298-.08.449-.095 3.865-.367 6.665-3.126 7.054-7 .137-1.365.146-2.744.296-4.108.085-.767.277-1.538.531-2.27.806-2.32 2.518-3.486 4.923-3.686 1.353-.112 2.72-.106 4.061-.294C44.4 30 46.751 27.79 47.608 23.91c.184-.833.264-1.69.392-2.535v-2.156c-.192-.88-.328-1.776-.586-2.635" mask="url(#b)"/>
        </g>
        <path fill="#1A237E" d="M23.758 14.598c-1.674.013-3.08-1.403-3.073-3.096.006-1.695 1.41-3.095 3.09-3.082 1.671.013 3.044 1.395 3.05 3.072a3.106 3.106 0 0 1-3.067 3.106m-.014-8.23c-2.866.02-5.169 2.353-5.131 5.2.037 2.813 2.354 5.1 5.154 5.085 2.854-.014 5.17-2.364 5.13-5.203-.04-2.82-2.353-5.102-5.153-5.083M11.52 20.954c-1.687.006-3.103-1.402-3.101-3.083 0-1.689 1.406-3.084 3.1-3.078 1.693.006 3.101 1.425 3.08 3.102-.022 1.673-1.41 3.052-3.08 3.059m-.01-8.22a5.124 5.124 0 0 0-5.142 5.09c-.015 2.868 2.287 5.196 5.14 5.196 2.828.001 5.147-2.318 5.146-5.147a5.137 5.137 0 0 0-5.145-5.138M36.534 20.949c-1.682.033-3.097-1.344-3.131-3.047-.034-1.668 1.379-3.097 3.07-3.108 1.696-.01 3.088 1.367 3.107 3.071.018 1.656-1.36 3.05-3.046 3.084m-.056-8.214c-2.8-.012-5.132 2.308-5.131 5.104.001 2.868 2.312 5.19 5.158 5.181 2.834-.007 5.132-2.32 5.128-5.16-.005-2.845-2.287-5.114-5.155-5.125M12.482 31.232c-1.137-.007-2.085-.972-2.069-2.105a2.096 2.096 0 0 1 2.07-2.053c1.142-.007 2.096.94 2.094 2.076-.003 1.135-.962 2.089-2.095 2.082m.034-6.252c-2.248-.031-4.177 1.882-4.19 4.156-.012 2.268 1.888 4.17 4.167 4.17 2.288 0 4.168-1.885 4.16-4.17-.008-2.26-1.864-4.124-4.137-4.156M20.802 39.557c-1.139-.01-2.087-.982-2.064-2.115a2.09 2.09 0 0 1 2.076-2.05c1.146-.003 2.096.944 2.09 2.084-.005 1.138-.968 2.09-2.102 2.08m.059-6.25c-2.29-.013-4.135 1.7-4.206 4.131-.066 2.244 1.819 4.15 4.097 4.195 2.287.045 4.186-1.8 4.227-4.109.04-2.278-1.792-4.203-4.118-4.217"/>
    </g>
</svg>
