<svg xmlns="http://www.w3.org/2000/svg" xmlns:xlink="http://www.w3.org/1999/xlink" width="45" height="48" viewBox="0 0 45 48">
    <defs>
        <path id="a" d="M40.725 15.651c-.007-.017-.007-.034-.016-.051-.01-.016-.024-.025-.035-.04a21.726 21.726 0 0 0-2.796-3.847l1.685-1.718 1.109 1.131L44 7.732l-3.328-3.394-3.329 3.394 1.11 1.132-1.685 1.718a21.336 21.336 0 0 0-3.773-2.853c-.014-.01-.023-.026-.039-.035-.016-.01-.034-.01-.05-.018a20.756 20.756 0 0 0-8.06-2.723V4h1.177c1.082 0 1.962-.897 1.962-2s-.88-2-1.962-2h-7.061C17.88 0 17 .897 17 2s.879 2 1.96 2h1.178v.925c-.848.092-1.693.233-2.53.428a.8.8 0 0 0-.589.958c.097.43.518.701.94.601a19.6 19.6 0 0 1 2.181-.382l.842-.066c.257-.02.494-.034.725-.046V8c0 .442.35.8.784.8a.792.792 0 0 0 .785-.8V6.424A19.17 19.17 0 0 1 31.48 8.7l-.774 1.366a.809.809 0 0 0 .287 1.092.78.78 0 0 0 1.072-.293l.771-1.362a19.965 19.965 0 0 1 6.098 6.218l-1.337.786a.808.808 0 0 0-.285 1.093c.146.257.409.4.68.4a.767.767 0 0 0 .392-.107l1.339-.789a20.16 20.16 0 0 1 2.235 8.495h-1.55a.792.792 0 0 0-.784.8c0 .443.35.8.784.8h1.55a20.16 20.16 0 0 1-2.235 8.495l-1.34-.788a.775.775 0 0 0-1.071.292.809.809 0 0 0 .287 1.093l1.336.787a19.965 19.965 0 0 1-6.097 6.217l-.771-1.362a.775.775 0 0 0-1.072-.293.808.808 0 0 0-.287 1.093l.773 1.365a19.17 19.17 0 0 1-8.203 2.276V44.8c0-.442-.35-.8-.784-.8a.792.792 0 0 0-.785.8v1.58a19.435 19.435 0 0 1-3.747-.493.78.78 0 0 0-.94.601.8.8 0 0 0 .59.958c1.566.368 3.165.554 4.752.554.039 0 .076-.002.114-.003.006 0 .01.003.014.003.006 0 .012-.004.018-.004a20.735 20.735 0 0 0 10.37-2.858c.025-.012.051-.017.075-.032.015-.01.024-.024.039-.035a21.552 21.552 0 0 0 7.667-7.809c.015-.021.034-.038.047-.062.01-.017.009-.034.017-.051A21.772 21.772 0 0 0 43.547 26.4c0-3.912-1.03-7.58-2.822-10.749z"/>
        <path id="b" d="M40.671 6.6l1.11 1.132-1.11 1.132-1.11-1.132z"/>
        <path id="c" d="M21.708 4.817V2.4h-2.746a.397.397 0 0 1-.392-.4c0-.22.176-.4.392-.4h7.06c.216 0 .393.18.393.4 0 .22-.177.4-.392.4h-2.746v2.417a19.128 19.128 0 0 0-.785-.017l-.069.002-.059-.002c-.128 0-.257.009-.386.011-.09.003-.176.002-.27.006z"/>
    </defs>
    <g fill="none" fill-rule="evenodd">
        <path fill="#1A237E" fill-rule="nonzero" stroke="#1A237E" stroke-width=".5" d="M24.12 30.991a2.891 2.891 0 0 0 2.118-1.185l7.608-10.518a.813.813 0 0 0-1.135-1.135l-10.52 7.61a2.892 2.892 0 0 0 1.929 5.228zm-1.491-2.985c.028-.371.219-.71.518-.928l6.416-4.642-4.64 6.415a1.272 1.272 0 0 1-2.294-.845z"/>
        <g transform="translate(1)">
            <use fill="#FFF" xlink:href="#a"/>
            <path stroke="#1A237E" d="M40.233 15.75l-.002-.007v-.001l.002.009zm.098.177a.647.647 0 0 1 0 0zm.009.008zm-.076-.095l-.024-.032a21.226 21.226 0 0 0-2.732-3.758l-.318-.35 2.373-2.419 1.109 1.131 2.628-2.68-2.628-2.68-2.628 2.68 1.11 1.132-2.373 2.418-.357-.337a21 21 0 0 0-3.715-2.806l-.017-.014-.04-.018a20.254 20.254 0 0 0-7.865-2.658l-.44-.052V3.5h1.676c.804 0 1.462-.67 1.462-1.5 0-.829-.659-1.5-1.462-1.5h-7.061C18.158.5 17.5 1.17 17.5 2s.657 1.5 1.46 1.5h1.678v1.873l-.446.049c-.842.091-1.667.23-2.47.418a.3.3 0 0 0-.215.362.284.284 0 0 0 .338.223 20.101 20.101 0 0 1 2.256-.393l.842-.066c.25-.02.49-.035.74-.047l.524-.025V8c0 .168.129.3.284.3a.292.292 0 0 0 .285-.3V5.9l.523.025c2.968.139 5.826.941 8.417 2.335l.45.242-.252.444-.773 1.366a.309.309 0 0 0 .106.416.267.267 0 0 0 .137.038.28.28 0 0 0 .245-.147l1.032-1.824.446.288a20.465 20.465 0 0 1 6.25 6.374l.27.435-.44.26-1.336.786a.308.308 0 0 0-.105.415.282.282 0 0 0 .245.147.267.267 0 0 0 .138-.038l1.794-1.057.243.47a20.659 20.659 0 0 1 2.29 8.705l.02.52h-2.069a.292.292 0 0 0-.284.3c0 .168.129.3.284.3h2.07l-.02.519a20.659 20.659 0 0 1-2.291 8.705l-.243.47-.455-.269-1.34-.789a.275.275 0 0 0-.382.108.309.309 0 0 0 .106.416l1.777 1.047-.27.435a20.465 20.465 0 0 1-6.25 6.373l-.446.288-.261-.461-.772-1.363a.276.276 0 0 0-.383-.108.308.308 0 0 0-.105.415l1.025 1.81-.45.243a19.668 19.668 0 0 1-8.416 2.335l-.524.024V44.8c0-.168-.129-.3-.284-.3a.292.292 0 0 0-.285.3v2.099l-.517-.019a19.94 19.94 0 0 1-3.848-.507c-.145-.036-.297.062-.334.225a.3.3 0 0 0 .216.362c1.526.358 3.087.54 4.638.54l.039-.001h.01l.065-.002.011.001.018-.002c3.596-.025 7.058-.995 10.165-2.813l.025-.01.041-.032c3.095-1.839 5.681-4.473 7.512-7.663l.019-.025.02-.05A21.27 21.27 0 0 0 43.047 26.4c0-3.731-.96-7.325-2.757-10.503l-.018-.034-.008-.023zm-7.642-7.776a1.108 1.108 0 0 1-.007-.008.044.044 0 0 0 .007.008zm.175.103a.099.099 0 0 0 .013.003l-.013-.003zm.013.003zM22.598 47.51a.211.211 0 0 1 .054.016l-.012-.004a.427.427 0 0 0-.042-.012zm.054.016zm-.285-.011c-.013.002-.018.005-.027.009.013-.006.02-.009.036-.012zm10.37-2.86h0zm-.116.08a.046.046 0 0 0-.008.008l.008-.009zm7.675-7.818l.001-.002h.001c0-.002 0 0-.002.002zm-.064.132zm.971.242l.002-.01v.004l-.002.006zm-7.869 8.145a.033.033 0 0 0 .005-.005 2.513 2.513 0 0 1-.005.005zm.005-.005zm-.277-38.23l-.011-.003.01.002zm.275.162c0 .002.002.003.003.004l-.003-.004zm7.71 7.863a.034.034 0 0 0-.005-.005l.005.005zm.155.276l.002.006v.002l-.002-.008z"/>
        </g>
        <g transform="translate(1)">
            <use fill="#FFF" xlink:href="#b"/>
            <path stroke="#1A237E" d="M41.08 7.732l.344.35v-.7l-.344.35zm-.409.418l-.357.364h.714l-.357-.364zm-.41-.418l-.343-.35v.7l.344-.35zm.41-.417l.357-.364h-.714l.357.364z"/>
        </g>
        <g transform="translate(1)">
            <use fill="#FFF" xlink:href="#c"/>
            <path stroke="#1A237E" d="M22.208 2.1v-.2h-3.246c.062 0 .108.046.108.1 0 .054-.046.1-.108.1h3.246zm.569 0h3.246c-.063 0-.108-.046-.108-.1 0-.054.045-.1.108-.1h-3.246v.2zm0 2.202v.515h.5l.02-.5a20.582 20.582 0 0 0-.52-.015zm-.353 0zm-.216.001a17.766 17.766 0 0 0-.239.008l-.101.002h-.003a5.397 5.397 0 0 0-.179.004l.022.5h.5v-.514zm.155.997h.001z"/>
        </g>
        <path fill="#1A237E" fill-rule="nonzero" stroke="#1A237E" stroke-width=".5" d="M17.143 11h-4.286c-.474 0-.857.447-.857 1 0 .553.383 1 .857 1h4.286c.474 0 .857-.447.857-1 0-.553-.383-1-.857-1zM17.167 17H8.833c-.46 0-.833.447-.833 1 0 .553.372 1 .833 1h8.334c.46 0 .833-.447.833-1 0-.553-.372-1-.833-1zM16.235 22H4.765C4.342 22 4 22.447 4 23c0 .553.342 1 .765 1h11.47c.423 0 .765-.447.765-1 0-.553-.342-1-.765-1zM17.19 28H1.81c-.448 0-.81.447-.81 1 0 .553.362 1 .81 1h15.38c.448 0 .81-.447.81-1 0-.553-.362-1-.81-1zM16.2 34H5.8c-.442 0-.8.447-.8 1 0 .553.358 1 .8 1h10.4c.442 0 .8-.447.8-1 0-.553-.358-1-.8-1zM16.222 39h-5.444c-.43 0-.778.447-.778 1 0 .553.348 1 .778 1h5.444c.43 0 .778-.447.778-1 0-.553-.348-1-.778-1z"/>
    </g>
</svg>
