<svg xmlns="http://www.w3.org/2000/svg" xmlns:xlink="http://www.w3.org/1999/xlink" width="48" height="48" viewBox="0 0 48 48">
    <defs>
        <path id="a" d="M0 .009h47.915V48H0z"/>
    </defs>
    <g fill="none" fill-rule="evenodd">
        <g>
            <mask id="b" fill="#fff">
                <use xlink:href="#a"/>
            </mask>
            <path fill="#1A237E" d="M23.27 26.782c-.433-.455-.918-.96-1.399-1.468-.676-.716-1.236-.724-1.886-.003-2.203 2.444-4.403 4.892-6.603 7.339-.086.096-.158.204-.262.339h7.83c.293-1.085.5-2.163.88-3.175.384-1.028.938-1.991 1.44-3.032zm21.642-.73c0-1.24.018-2.317-.013-3.393a1.251 1.251 0 0 0-.286-.736c-1.55-1.753-3.12-3.488-4.689-5.226-1.132-1.255-2.426-1.26-3.562-.006-1.236 1.364-2.463 2.736-3.693 4.106-.094.104-.175.22-.31.388 2.43-.366 4.694-.106 6.892.737 2.21.847 4.054 2.211 5.661 4.13zM34.42 24.01c-5.765.014-10.479 4.75-10.464 10.513.014 5.775 4.74 10.498 10.492 10.484 5.764-.014 10.478-4.75 10.464-10.513-.015-5.775-4.741-10.498-10.492-10.484zM44.9 3.045H3.02v29.964h.48c1.684 0 3.368-.01 5.052.008.344.003.568-.1.797-.356 2.832-3.164 5.672-6.321 8.52-9.47.937-1.038 2.109-1.5 3.515-1.36 1.03.103 1.858.579 2.563 1.307.442.456.878.918 1.335 1.397.255-.282.475-.523.693-.766 2.743-3.054 5.48-6.115 8.231-9.162 2.25-2.49 5.677-2.467 7.91.033.833.931 1.668 1.86 2.504 2.787.072.08.16.147.28.254V3.045zM0 34.884V1.134C.224.608.598.234 1.123.009h45.66c.752.338 1.133.879 1.132 1.744-.013 10.87-.008 21.742-.01 32.612 0 1.414-.19 2.803-.613 4.153-2.144 6.83-9.179 10.831-16.106 9.065-4.575-1.166-7.71-4.056-9.384-8.481-.371-.981-.563-2.03-.85-3.09h-.504c-6.158-.002-12.315-.015-18.473.01C1.05 36.025.374 35.76 0 34.884z" mask="url(#b)"/>
        </g>
        <path fill="#1A237E" d="M16.426 13.406c-.015-1.624-1.372-2.973-2.994-2.975-1.636 0-3.015 1.387-3 3.02.014 1.625 1.372 2.974 2.993 2.975 1.636 0 3.015-1.387 3-3.02m3.004.02c.001 3.295-2.69 5.995-5.987 6.003-3.314.008-6.025-2.707-6.013-6.021.012-3.296 2.714-5.985 6.01-5.98 3.296.006 5.988 2.701 5.99 5.998M35.772 35.774v2.4c0 .68.011 1.362-.005 2.042-.02.87-.676 1.511-1.506 1.498-.808-.013-1.45-.652-1.459-1.498-.015-1.3-.003-2.6-.003-3.901v-.543h-2.167c-.774 0-1.549.017-2.322-.005a1.478 1.478 0 0 1-1.453-1.504 1.466 1.466 0 0 1 1.452-1.455c1.315-.023 2.631-.01 3.947-.011h.543v-3.654c0-.279-.008-.558.005-.836.04-.837.697-1.464 1.508-1.45.79.014 1.442.638 1.454 1.454.02 1.347.006 2.694.006 4.04v.448h3.377c.372 0 .744-.012 1.115.003.814.035 1.438.67 1.45 1.461a1.467 1.467 0 0 1-1.453 1.5c-1.33.023-2.662.01-3.994.01h-.495"/>
    </g>
</svg>
