<svg xmlns="http://www.w3.org/2000/svg" width="50" height="49" viewBox="0 0 50 49">
    <g fill="#1A237E" fill-rule="nonzero">
        <path stroke="#1A237E" d="M31.51 38.006H18.703a.376.376 0 0 0-.377.377v5.273c0 .1.04.196.11.267l1.507 1.506c.071.07.167.11.267.11h9.793c.1 0 .196-.04.266-.11l1.507-1.506c.07-.071.11-.167.11-.267v-5.273a.376.376 0 0 0-.376-.377zm-.377 5.494l-1.286 1.286h-9.481L19.08 43.5v-4.74h12.053v4.74z"/>
        <path d="M32.243 39.513l-14.313.753a.377.377 0 0 0 .02.753l.02-.001 14.313-.753a.377.377 0 1 0-.04-.752zM32.243 41.773l-14.313.753a.377.377 0 0 0 .02.754c.006 0 .013 0 .02-.002l14.313-.753a.377.377 0 1 0-.04-.752z"/>
        <path stroke="#1A237E" d="M25.106 12.393c-7.061 0-12.806 5.745-12.806 12.807 0 4.446 2.248 8.486 6.026 10.848v2.335c0 .207.169.377.377.377H31.51c.208 0 .376-.17.376-.377v-2.335c3.778-2.36 6.027-6.4 6.027-10.848 0-7.062-5.745-12.807-12.807-12.807zm6.21 23.122a.377.377 0 0 0-.183.323v2.168H19.08v-2.168a.377.377 0 0 0-.182-.323c-3.66-2.207-5.845-6.063-5.845-10.315 0-6.647 5.407-12.054 12.054-12.054 6.646 0 12.053 5.407 12.053 12.054 0 4.252-2.185 8.108-5.845 10.315zM28.487 45.217c-.183-.123-.41-.027-.506.216-.028.07-.71 1.736-3.054 1.736-2.341 0-3.025-1.66-3.055-1.736-.093-.245-.318-.343-.504-.22-.186.124-.261.426-.168.673.035.094.89 2.287 3.727 2.287 2.837 0 3.691-2.193 3.727-2.287.092-.245.017-.543-.167-.669zM8.911 24.823H1.377a.376.376 0 1 0 0 .753H8.91a.377.377 0 0 0 0-.753zM48.836 24.823h-7.533a.377.377 0 0 0 0 .753h7.533a.377.377 0 0 0 0-.753zM11.408 33.11a.376.376 0 0 0-.515-.139l-6.525 3.767a.377.377 0 1 0 .377.652l6.525-3.767a.375.375 0 0 0 .138-.513zM45.983 13.147a.375.375 0 0 0-.515-.138l-6.522 3.767a.377.377 0 1 0 .376.652l6.523-3.767a.377.377 0 0 0 .138-.514zM37.16 4.324a.375.375 0 0 0-.515.137l-3.766 6.524a.377.377 0 0 0 .654.376l3.765-6.523a.377.377 0 0 0-.138-.514zM25.484 1.47a.377.377 0 0 0-.753 0v7.532a.377.377 0 0 0 .754 0V1.47zM17.337 10.983L13.57 4.461a.376.376 0 1 0-.653.376l3.767 6.523a.377.377 0 0 0 .653-.377zM45.846 36.737l-6.523-3.767a.376.376 0 1 0-.377.652l6.524 3.766a.379.379 0 0 0 .515-.137.378.378 0 0 0-.139-.514zM11.27 16.773l-6.523-3.765a.376.376 0 1 0-.377.652l6.523 3.765a.377.377 0 0 0 .377-.652z"/>
        <path stroke="#1A237E" d="M33.34 24.63l-2.26-3.767a.376.376 0 0 0-.324-.184h-11.3a.375.375 0 0 0-.323.184l-2.26 3.766a.378.378 0 0 0 .05.454l7.91 8.287a.38.38 0 0 0 .546 0l7.91-8.287a.376.376 0 0 0 .05-.454zm-8.234 7.934l-7.439-7.794 2.003-3.337h10.873l2.002 3.337-7.439 7.794z"/>
        <path d="M31.51 24.446H18.703a.376.376 0 1 0 0 .754H31.51a.377.377 0 0 0 0-.754z"/>
        <path d="M25.067 31.434l-3.014-6.027a.376.376 0 0 0-.674.337l3.014 6.027a.377.377 0 1 0 .674-.337z"/>
        <path d="M28.665 25.24a.376.376 0 0 0-.506.167l-3.013 6.027a.378.378 0 0 0 .337.546.376.376 0 0 0 .337-.21l3.013-6.026a.376.376 0 0 0-.168-.505zM27.988 23.783l-2.637-2.26a.377.377 0 0 0-.49 0l-2.636 2.26a.376.376 0 1 0 .49.572l2.391-2.05 2.392 2.05a.375.375 0 0 0 .53-.04.376.376 0 0 0-.04-.532z"/>
        <path d="M21.983 23.803l-2.26-2.26a.377.377 0 1 0-.533.533l2.26 2.26a.376.376 0 1 0 .533-.533zM31.023 21.543a.377.377 0 0 0-.533 0l-2.26 2.26a.377.377 0 1 0 .533.533l2.26-2.26a.376.376 0 0 0 0-.533z"/>
        <path stroke="#1A237E" d="M44.793 19.924a.38.38 0 0 0-.46-.267l-3.68.987a.377.377 0 1 0 .196.728l3.678-.986a.376.376 0 0 0 .266-.462zM9.825 29.293a.381.381 0 0 0-.46-.266l-3.68.987a.377.377 0 0 0 .195.728l3.68-.987c.2-.055.32-.26.265-.462zM39.517 10.788a.376.376 0 0 0-.532 0l-2.693 2.694a.376.376 0 1 0 .533.533l2.692-2.694a.376.376 0 0 0 0-.533zM13.919 36.386a.377.377 0 0 0-.533 0l-2.691 2.694a.376.376 0 1 0 .532.533l2.692-2.694a.377.377 0 0 0 0-.533zM30.38 5.513a.384.384 0 0 0-.462.267l-.983 3.68a.376.376 0 1 0 .727.194l.984-3.68a.378.378 0 0 0-.267-.461zM21.278 9.459L20.29 5.78a.377.377 0 0 0-.727.196l.988 3.679a.377.377 0 0 0 .727-.196zM13.92 13.482l-2.694-2.69a.376.376 0 1 0-.533.532l2.694 2.69a.376.376 0 1 0 .533-.532zM39.518 39.08l-2.694-2.69a.377.377 0 1 0-.532.532l2.694 2.691a.376.376 0 0 0 .532 0 .376.376 0 0 0 0-.533zM9.56 20.646l-3.68-.985a.383.383 0 0 0-.461.267c-.054.201.065.408.266.462l3.68.984a.376.376 0 0 0 .195-.728zM44.527 30.014l-3.679-.984a.381.381 0 0 0-.46.267c-.055.2.065.406.266.46l3.679.985a.377.377 0 0 0 .194-.728z"/>
    </g>
</svg>
