<svg xmlns="http://www.w3.org/2000/svg" width="53" height="47" viewBox="0 0 53 47">
    <g fill="#1A237E" fill-rule="evenodd">
        <g fill-rule="nonzero">
            <path stroke="#1A237E" stroke-width=".5" d="M50.658 30.672h-.554v-4.987c0-.79-.393-1.49-.993-1.914v-.679c0-.985-.801-1.786-1.786-1.786h-.414l1.582-2.321a1.71 1.71 0 0 0-.45-2.373L37.31 9.297a1.695 1.695 0 0 0-1.28-.267c-.448.085-.836.34-1.093.717L25.673 23.34h-2.578l.622-6.296a.187.187 0 0 1 .117-.157 4.008 4.008 0 0 0 1.955-1.589.186.186 0 0 1 .176-.082l4.043.4a.527.527 0 0 0 .104-1.05l-4.044-.4c-.47-.045-.917.171-1.168.566a2.947 2.947 0 0 1-1.438 1.169 1.232 1.232 0 0 0-.795 1.04l-.632 6.4h-.672l.983-9.96a.653.653 0 0 1 .715-.585l8.171.807a.528.528 0 0 0 .104-1.05l-8.172-.806a1.71 1.71 0 0 0-1.867 1.531l-.793 8.027h-1.35c-.985 0-1.787.801-1.787 1.786v.463a2.346 2.346 0 0 0-1.366 2.13v17.972A2.346 2.346 0 0 0 18.344 46H47.76a2.346 2.346 0 0 0 2.343-2.343v-4.988h.554c.653 0 1.185-.531 1.185-1.185v-5.627c0-.653-.532-1.185-1.185-1.185zm-3.333-8.312c.403 0 .732.328.732.732v.269a2.35 2.35 0 0 0-.296-.02h-2.237l.669-.98h1.132zM35.809 10.34a.65.65 0 0 1 .907-.172l10.734 7.315c.297.203.375.61.172.908l-3.374 4.95h-.81l1.654-2.427c.269-.394.29-.895.058-1.307a2.947 2.947 0 0 1-.353-1.819 1.233 1.233 0 0 0-.534-1.183L38.7 12.813a1.233 1.233 0 0 0-1.296-.064 2.947 2.947 0 0 1-1.822.337 1.248 1.248 0 0 0-1.196.531l-6.627 9.724h-.81l8.86-13zm.232 8.953a4.35 4.35 0 0 0-4.334 4.048h-2.673l6.222-9.13a.188.188 0 0 1 .178-.081 4.008 4.008 0 0 0 2.478-.458.186.186 0 0 1 .193.012l5.565 3.792c.058.04.09.109.081.175-.11.85.06 1.728.48 2.474.034.06.03.136-.01.195l-2.059 3.021h-1.787a4.35 4.35 0 0 0-4.334-4.048zm3.277 4.048h-6.554a3.295 3.295 0 0 1 3.277-2.993 3.295 3.295 0 0 1 3.277 2.993zm-20.896-.249c0-.404.328-.732.732-.732H20.4l-.097.981h-1.881v-.249zm-1.367 2.593c0-.711.578-1.29 1.289-1.29H47.76c.71 0 1.289.579 1.289 1.29v1.463H17.055v-1.463zM49.05 43.657a1.29 1.29 0 0 1-1.29 1.289H18.345a1.29 1.29 0 0 1-1.289-1.29v-1.462h2.843a.527.527 0 1 0 0-1.055h-2.843V28.202H49.05v2.47h-5.013a4.003 4.003 0 0 0-3.999 3.999 4.003 4.003 0 0 0 3.999 3.998h5.013v2.47H23.274a.527.527 0 1 0 0 1.055H49.05v1.463zm1.739-6.173c0 .072-.059.13-.131.13h-6.621a2.947 2.947 0 0 1-2.653-4.219 2.947 2.947 0 0 1 2.654-1.669h6.62c.072 0 .13.06.13.131v5.627z"/>
            <path d="M44.16 32.532c-1.179 0-2.139.96-2.139 2.139 0 1.18.96 2.139 2.14 2.139 1.18 0 2.139-.96 2.139-2.14 0-1.179-.96-2.138-2.14-2.138zm0 3.223a1.086 1.086 0 0 1 0-2.169 1.086 1.086 0 0 1 0 2.17z"/>
        </g>
        <path d="M5.295 16.296a2.78 2.78 0 0 1-1.882-.714l-3.053-2.8a1.15 1.15 0 0 1 0-1.728 1.416 1.416 0 0 1 1.883 0l3.052 2.8 3.053-2.8a1.416 1.416 0 0 1 1.882 0c.52.478.52 1.25 0 1.727l-3.052 2.8a2.78 2.78 0 0 1-1.883.715"/>
        <path d="M5.6 15.166c-.597 0-1.138-.37-1.289-.924a9.09 9.09 0 0 1-.166-.694l-.135-.986a3.492 3.492 0 0 1-.02-.222l-.009-.135a7.14 7.14 0 0 1-.017-.593c0-6.06 5.374-10.991 11.98-10.991.397 0 .795.014 1.193.057.34.023.742.08 1.115.151.363.068.734.15 1.09.245.257.073.494.141.732.223.132.04.311.1.473.172.214.07.567.217.885.378.893.408 1.8.985 2.649 1.691.544.453.586 1.226.093 1.726a1.42 1.42 0 0 1-1.88.084 9.516 9.516 0 0 0-2.1-1.34 6.015 6.015 0 0 0-.718-.305c-.171-.07-.231-.085-.29-.102-.237-.081-.427-.136-.615-.19-.264-.07-.556-.134-.852-.19a7.536 7.536 0 0 0-.843-.113 8.458 8.458 0 0 0-.931-.045c-5.138 0-9.319 3.835-9.319 8.55 0 .14-.001.279.01.408l.014.18c.001.008.008.115.01.122l.114.846c.026.131.073.31.118.48.18.655-.254 1.318-.967 1.48a1.402 1.402 0 0 1-.325.037"/>
    </g>
</svg>
